<svg width="25" height="21" viewBox="0 0 25 21" fill="none" xmlns="http://www.w3.org/2000/svg">
<path d="M11.6667 0.500001L3.33335 0.5M24.1667 18.8333L24.1667 5.5C24.1667 4.57953 23.4205 3.83334 22.5 3.83334L2.50001 3.83333C1.57954 3.83333 0.833346 4.57953 0.833345 5.5L0.833344 18.8333C0.833343 19.7538 1.57954 20.5 2.50001 20.5L22.5 20.5C23.4205 20.5 24.1667 19.7538 24.1667 18.8333ZM15.8333 15.5C13.9924 15.5 12.5 14.0076 12.5 12.1667C12.5 10.3257 13.9924 8.83333 15.8333 8.83333C17.6743 8.83333 19.1667 10.3257 19.1667 12.1667C19.1667 14.0076 17.6743 15.5 15.8333 15.5Z" stroke="black"/>
</svg>
