<svg width="27" height="20" viewBox="0 0 27 20" fill="none" xmlns="http://www.w3.org/2000/svg">
<path d="M17.637 16.4169L17.1898 16.6405V16.6405L17.637 16.4169ZM17.0714 15.2857L17.5186 15.0621C17.4339 14.8927 17.2608 14.7857 17.0714 14.7857V15.2857ZM9.92857 15.2857V14.7857C9.73919 14.7857 9.56605 14.8927 9.48136 15.0621L9.92857 15.2857ZM9.363 16.4169L8.91579 16.1932L9.363 16.4169ZM25.5 6.35714V14.4426H26.5V6.35714H25.5ZM18.0842 16.1932L17.5186 15.0621L16.6242 15.5093L17.1898 16.6405L18.0842 16.1932ZM17.0714 14.7857H9.92857V15.7857H17.0714V14.7857ZM9.48136 15.0621L8.91579 16.1932L9.81022 16.6405L10.3758 15.5093L9.48136 15.0621ZM1.5 14.4426V6.35714H0.5V14.4426H1.5ZM6.35714 1.5H20.6429V0.5H6.35714V1.5ZM5.41453 18.3571C3.25259 18.3571 1.5 16.6045 1.5 14.4426H0.5C0.5 17.1568 2.70031 19.3571 5.41453 19.3571V18.3571ZM21.5855 18.3571C20.1028 18.3571 18.7473 17.5194 18.0842 16.1932L17.1898 16.6405C18.0223 18.3054 19.724 19.3571 21.5855 19.3571V18.3571ZM25.5 14.4426C25.5 16.6045 23.7474 18.3571 21.5855 18.3571V19.3571C24.2997 19.3571 26.5 17.1568 26.5 14.4426H25.5ZM8.91579 16.1932C8.2527 17.5194 6.89724 18.3571 5.41453 18.3571V19.3571C7.27601 19.3571 8.97773 18.3054 9.81022 16.6405L8.91579 16.1932ZM26.5 6.35714C26.5 3.12233 23.8777 0.5 20.6429 0.5V1.5C23.3254 1.5 25.5 3.67462 25.5 6.35714H26.5ZM1.5 6.35714C1.5 3.67462 3.67462 1.5 6.35714 1.5V0.5C3.12233 0.5 0.5 3.12233 0.5 6.35714H1.5ZM5.46429 8.64286H10.8214V7.64286H5.46429V8.64286ZM7.64286 5.46429V10.8214H8.64286V5.46429H7.64286ZM19.75 6.85714H21.5357V5.85714H19.75V6.85714ZM16.1786 10.4286H17.9643V9.42857H16.1786V10.4286Z" fill="black"/>
</svg>
