<svg width="25" height="25" viewBox="0 0 25 25" fill="none" xmlns="http://www.w3.org/2000/svg">
<path d="M2.50001 15.8333H4.16668C5.08715 15.8333 5.83334 16.5795 5.83334 17.5V22.5C5.83334 23.4205 5.08715 24.1666 4.16668 24.1666H2.50001C1.57954 24.1666 0.833344 23.4205 0.833344 22.5V17.5C0.833344 16.5795 1.57954 15.8333 2.50001 15.8333ZM2.50001 15.8333V10.8333C2.50001 5.31047 6.97716 0.833313 12.5 0.833313C18.0229 0.833313 22.5 5.31047 22.5 10.8333V15.8333M22.5 15.8333H20.8333C19.9129 15.8333 19.1667 16.5795 19.1667 17.5V22.5C19.1667 23.4205 19.9129 24.1666 20.8333 24.1666H22.5C23.4205 24.1666 24.1667 23.4205 24.1667 22.5V17.5C24.1667 16.5795 23.4205 15.8333 22.5 15.8333Z" stroke="black"/>
</svg>
