<svg width="99" height="59" viewBox="0 0 99 59" fill="none" xmlns="http://www.w3.org/2000/svg">
<path d="M41.1035 9.53813C41.1035 7.80308 42.5549 6.2373 44.4212 6.2373C46.2047 6.2373 47.6562 7.80308 47.6562 9.53813C47.6562 11.4001 46.2047 12.9224 44.4212 12.9224C42.5549 12.9236 41.1035 11.4001 41.1035 9.53813ZM41.3517 15.927H47.4068V37.8021H41.3517V15.927Z" fill="#C4C4C4"/>
<path d="M50.5591 15.927H56.905L62.6693 30.6938L68.3096 15.927H74.6141L65.4481 37.8021H59.8492L50.5591 15.927Z" fill="#C4C4C4"/>
<path d="M75.6093 26.844C75.6093 20.6244 80.9588 15.4204 87.346 15.4204C93.6919 15.4204 99 20.6244 99 26.844C99 33.0636 93.6919 38.3099 87.346 38.3099C80.9588 38.3099 75.6093 33.0636 75.6093 26.844ZM93.2357 26.844C93.2357 23.4585 90.5397 20.6244 87.346 20.6244C84.111 20.6244 81.415 23.4597 81.415 26.844C81.415 30.2283 84.111 33.106 87.346 33.106C90.5397 33.106 93.2357 30.2283 93.2357 26.844Z" fill="#C4C4C4"/>
<path d="M19.3355 23.5384L12.6138 0.0012207H1.72919L11.2734 27.3001C12.7662 26.4901 14.2827 25.7343 15.8204 25.0337C16.9811 24.5035 18.1535 24.0086 19.3355 23.5384Z" fill="#C4C4C4"/>
<path d="M30.6314 24.9032L30.4329 25.4686L30.0334 26.6018L29.8336 27.1672L29.4341 28.3004L29.2344 28.867L29.0346 29.4324L28.8349 29.999L28.6363 30.5656L28.4365 31.131L28.0371 32.2642L27.8373 32.8308L27.6376 33.3963L27.2381 34.5294L27.0395 35.0949L26.8397 35.6615L26.64 36.2281L26.4402 36.7947L26.2405 37.3601L26.0715 37.8385H15.3275L15.2625 37.6528L15.0628 37.0815L14.863 36.5102L14.6633 35.9401L14.4635 35.3688L14.2638 34.7975L14.1007 34.3284L14.0652 34.2273L13.8655 33.656C13.9317 33.6078 13.9979 33.5585 14.0652 33.5103C14.1184 33.4703 14.1728 33.4315 14.226 33.3916C14.239 33.3833 14.252 33.3751 14.2638 33.3657C14.3312 33.3222 14.3974 33.2764 14.4635 33.2317C14.5309 33.187 14.5971 33.1423 14.6633 33.0965C14.7295 33.0518 14.7969 33.0072 14.863 32.9613C14.9292 32.9155 14.9966 32.8696 15.0628 32.825C15.129 32.7791 15.1952 32.7333 15.2625 32.6874C15.3287 32.6428 15.3949 32.5969 15.4623 32.5511C15.5285 32.5064 15.5947 32.4617 15.662 32.4171L15.8606 32.2831C15.928 32.2384 15.9942 32.1937 16.0604 32.1502C16.1265 32.1067 16.1939 32.0644 16.2601 32.0221C16.3263 31.9786 16.3925 31.9351 16.4599 31.894C16.5107 31.861 16.5603 31.8281 16.6111 31.7964L16.6596 31.7658L16.8594 31.6412L17.0591 31.5178L17.2589 31.3932L17.4574 31.2686L17.6572 31.144L17.8321 31.0347L17.8569 31.0194L18.0567 30.8959L18.2564 30.7713L18.4443 30.6538L18.4562 30.6479L18.6559 30.5339L18.8557 30.421L19.0542 30.307L19.072 30.2976C19.1322 30.2623 19.1937 30.2294 19.254 30.1942C19.3202 30.1566 19.3875 30.1189 19.4537 30.0813C19.5199 30.0437 19.5873 30.0061 19.6535 29.9685C19.7197 29.9309 19.787 29.8921 19.8532 29.8556C19.9194 29.818 19.9856 29.7792 20.053 29.7416C20.1192 29.7052 20.1854 29.6664 20.2527 29.6287C20.3189 29.5923 20.3851 29.5559 20.4525 29.5194C20.5187 29.483 20.5849 29.4477 20.651 29.4113C20.7184 29.3748 20.7846 29.3396 20.8508 29.3043C20.9182 29.2679 20.9844 29.2326 21.0505 29.1962C21.1179 29.1609 21.1841 29.1245 21.2503 29.088C21.3177 29.0527 21.3827 29.0163 21.45 28.981C21.5162 28.9458 21.5824 28.9093 21.6498 28.8741C21.716 28.84 21.7834 28.8071 21.8495 28.7718C21.9157 28.7377 21.9819 28.7036 22.0493 28.6695C22.1155 28.6354 22.1817 28.6014 22.249 28.5673C22.3152 28.5332 22.3814 28.4991 22.4476 28.465C22.515 28.4309 22.5812 28.3956 22.6474 28.3627C22.7147 28.3286 22.7809 28.2934 22.8471 28.2605C22.9133 28.2264 22.9807 28.1946 23.0469 28.1617C23.113 28.1288 23.1804 28.0971 23.2466 28.0641C23.3128 28.0312 23.3802 27.9995 23.4464 27.9666C23.5125 27.9348 23.5787 27.9019 23.6461 27.869C23.7123 27.8373 23.7785 27.8044 23.8459 27.7726C23.912 27.7397 23.9782 27.7068 24.0444 27.6751C24.1118 27.6433 24.178 27.6104 24.2442 27.5787C24.3104 27.5469 24.3777 27.5175 24.4439 27.4858C24.5101 27.4552 24.5775 27.4247 24.6437 27.3941C24.7099 27.3624 24.7772 27.3318 24.8434 27.3012C24.9096 27.2707 24.9758 27.2389 25.0432 27.2084C25.1094 27.1778 25.1755 27.1461 25.2429 27.1155C25.3091 27.0861 25.3753 27.0544 25.4427 27.0238C25.5089 26.9933 25.5751 26.9639 25.6412 26.9345C25.7086 26.9039 25.7748 26.8757 25.841 26.8463C25.9072 26.8169 25.9745 26.7875 26.0407 26.7582C26.1069 26.7288 26.1743 26.6994 26.2405 26.67C26.3067 26.6418 26.374 26.6112 26.4402 26.583C26.5064 26.5536 26.5726 26.5242 26.64 26.4948C26.7062 26.4666 26.7724 26.4361 26.8397 26.4067C26.9059 26.3785 26.9721 26.3514 27.0395 26.3232C27.1057 26.295 27.1719 26.268 27.2381 26.2398C27.3054 26.2127 27.3716 26.1845 27.4378 26.1575C27.5052 26.1293 27.5714 26.101 27.6376 26.074C27.7049 26.0458 27.7711 26.0176 27.8373 25.9905C27.9047 25.9635 27.9697 25.9341 28.0371 25.9071C28.1032 25.88 28.1694 25.8518 28.2368 25.8248C28.303 25.7978 28.3704 25.7731 28.4365 25.746C28.5027 25.719 28.5689 25.6931 28.6363 25.6673C28.7025 25.6402 28.7687 25.6144 28.8349 25.5885C28.9022 25.5615 28.9684 25.5356 29.0346 25.5098C29.102 25.4827 29.1682 25.4569 29.2344 25.4298C29.3017 25.404 29.3679 25.3769 29.4341 25.3511C29.4731 25.337 29.5109 25.3205 29.5499 25.3064C29.5771 25.2946 29.6055 25.2852 29.6339 25.2735C29.7001 25.2488 29.7674 25.2241 29.8336 25.1983C29.8998 25.1736 29.966 25.1477 30.0334 25.123C30.0996 25.0983 30.1657 25.0736 30.2331 25.049C30.2993 25.0255 30.3655 25.0008 30.4329 24.9761C30.499 24.9514 30.5652 24.9267 30.6314 24.9032Z" fill="#C4C4C4"/>
<path d="M32.9102 19.4947L39.782 0H28.8136L22.3956 22.3946C24.1555 21.7787 25.932 21.2215 27.7202 20.7278C29.44 20.2529 31.1715 19.8473 32.9102 19.4947Z" fill="#C4C4C4"/>
<path d="M68.9371 26.6182C67.1276 26.2621 65.3074 25.947 63.4872 25.6814C60.8361 25.2911 58.1779 24.9996 55.5161 24.8232C54.0387 24.7245 52.5612 24.6599 51.0838 24.6328L48.8511 24.6058C48.1065 24.6023 47.3642 24.6469 46.622 24.6634L45.5074 24.6975L44.9519 24.7139L44.3963 24.7586L42.9863 24.8644L42.1814 24.9255C39.782 25.163 37.3933 25.4615 35.0448 25.9259C34.5117 26.0246 33.9834 26.1363 33.4574 26.2585C30.5995 26.8968 27.7876 27.688 25.0798 28.7165C22.3755 29.7451 19.7598 30.9629 17.2848 32.3818L16.8191 32.6439L16.3629 32.9213L15.4552 33.482C14.8488 33.8523 14.2697 34.2661 13.6811 34.6529C12.5298 35.471 11.3952 36.3091 10.3338 37.2225C10.0584 37.4529 9.78535 37.6868 9.51232 37.9278H0C0.0165473 37.9149 0.0307301 37.8973 0.0437315 37.8843C0.336855 37.5646 0.632342 37.2801 0.929012 36.9851C1.52471 36.4079 2.12632 35.8578 2.74567 35.3323C3.97607 34.2732 5.25731 33.2987 6.57518 32.3959C9.20265 30.5762 11.9873 29.0351 14.8654 27.742C17.7399 26.449 20.7077 25.404 23.7193 24.5823C26.7298 23.7606 29.7981 23.2104 32.8617 22.8308C35.9289 22.4299 39.0138 22.3253 42.0738 22.3182L44.3668 22.3653L44.9424 22.3794L45.5145 22.4135L46.6562 22.4875C47.4174 22.5451 48.1798 22.5721 48.9386 22.6509L51.2067 22.8989C54.3909 23.2657 57.542 23.7982 60.6564 24.4765C61.6209 24.6834 62.5794 24.9079 63.5345 25.1453C65.3499 25.5897 67.15 26.0857 68.9371 26.6182Z" fill="#C4C4C4"/>
<path d="M17.1052 50.6809H19.975C22.6698 50.6809 24.5822 52.3713 24.5822 54.7634C24.5822 57.1556 22.6686 58.8577 19.975 58.8577H17.1052V50.6809ZM20.196 57.2614C21.7243 57.2614 22.8093 56.2258 22.8093 54.7623C22.8093 53.3105 21.7243 52.2749 20.196 52.2749H18.819V57.2614H20.196Z" fill="#C4C4C4"/>
<path d="M25.783 50.9066C25.783 50.4187 26.1908 49.9779 26.7168 49.9779C27.2179 49.9779 27.6269 50.4187 27.6269 50.9066C27.6269 51.4308 27.2191 51.8587 26.7168 51.8587C26.192 51.8587 25.783 51.4308 25.783 50.9066ZM25.8528 52.7039H27.5559V58.8565H25.8528V52.7039Z" fill="#C4C4C4"/>
<path d="M28.5819 58.0713L29.3171 56.8687C29.8537 57.2614 30.5297 57.5588 31.3346 57.5588C31.7897 57.5588 32.1159 57.3683 32.1159 57.0944C32.1159 56.7136 31.6727 56.5948 31.0545 56.4279C29.8182 56.1188 28.862 55.7732 28.8502 54.5589C28.8384 53.3928 29.7839 52.5593 31.207 52.5593C32.0698 52.5593 32.922 52.8685 33.5863 53.3211L32.8984 54.5589C32.3499 54.2133 31.72 54.0111 31.207 54.0111C30.7874 54.0111 30.4955 54.1662 30.4955 54.3802C30.4955 54.7129 30.7401 54.8093 31.5568 55.0349C32.5946 55.3088 33.7494 55.6662 33.7494 57.011C33.7494 58.2253 32.7813 58.9988 31.2992 58.9988C30.3323 58.9988 29.3052 58.6661 28.5819 58.0713Z" fill="#C4C4C4"/>
<path d="M38.4748 58.4639C38.1249 58.7848 37.5765 59 37.0872 59C36.0258 59 35.2788 58.2265 35.2788 57.1191V54.1087H34.4503V52.7039H35.2788V51.0135H36.9123V52.7039H38.2183V54.1087H36.9123V56.8464C36.9123 57.2508 37.1687 57.5365 37.4843 57.5365C37.7172 57.5365 37.9512 57.453 38.067 57.3343L38.4748 58.4639Z" fill="#C4C4C4"/>
<path d="M43.303 52.5605V54.0241C42.0431 54.0241 41.2382 54.7623 41.2382 55.9166V58.8566H39.535V52.704H41.2382V53.8466C41.6353 53.0484 42.3823 52.5605 43.303 52.5605Z" fill="#C4C4C4"/>
<path d="M44.2014 50.9066C44.2014 50.4187 44.6091 49.9779 45.1351 49.9779C45.6362 49.9779 46.0452 50.4187 46.0452 50.9066C46.0452 51.4308 45.6374 51.8587 45.1351 51.8587C44.6091 51.8587 44.2014 51.4308 44.2014 50.9066ZM44.2711 52.7039H45.9743V58.8565H44.2711V52.7039Z" fill="#C4C4C4"/>
<path d="M53.9536 55.7744C53.9536 57.6669 52.787 59 51.1772 59C50.3368 59 49.6371 58.6309 49.1596 57.9879V58.8566H47.4564V50.5375H49.1596V53.5609C49.6383 52.9296 50.338 52.5617 51.1772 52.5617C52.787 52.5605 53.9536 53.8936 53.9536 55.7744ZM52.2965 55.7744C52.2965 54.7505 51.6322 54.0252 50.6867 54.0252C49.8581 54.0252 49.2518 54.6435 49.1584 55.5369V56.013C49.2518 56.917 49.8581 57.5365 50.6867 57.5365C51.6322 57.5353 52.2965 56.81 52.2965 55.7744Z" fill="#C4C4C4"/>
<path d="M60.8585 52.704V58.8566H59.1553V58.0831C58.7937 58.6427 58.1176 59 57.3351 59C56.0291 59 55.0953 58.0126 55.0953 56.6196V52.704H56.7406V56.2505C56.7406 57.0122 57.2075 57.5353 57.8836 57.5353C58.5951 57.5353 59.1435 57.0122 59.1435 56.3457L59.1553 56.381V52.704H60.8585Z" fill="#C4C4C4"/>
<path d="M65.8972 58.4639C65.5473 58.7848 64.9989 59 64.5096 59C63.4482 59 62.7012 58.2265 62.7012 57.1191V54.1087H61.8727V52.7039H62.7012V51.0135H64.3347V52.7039H65.6407V54.1087H64.3347V56.8464C64.3347 57.2508 64.5911 57.5365 64.9067 57.5365C65.1396 57.5365 65.3736 57.453 65.4906 57.3343L65.8972 58.4639Z" fill="#C4C4C4"/>
<path d="M66.6205 55.7744C66.6205 54.0253 68.1252 52.5618 69.9217 52.5618C71.7065 52.5618 73.1993 54.0253 73.1993 55.7744C73.1993 57.5236 71.7065 59 69.9217 59C68.1252 58.9988 66.6205 57.5236 66.6205 55.7744ZM71.5777 55.7744C71.5777 54.8223 70.8188 54.0253 69.9217 54.0253C69.0116 54.0253 68.254 54.8223 68.254 55.7744C68.254 56.7266 69.0128 57.5353 69.9217 57.5353C70.82 57.5353 71.5777 56.7266 71.5777 55.7744Z" fill="#C4C4C4"/>
<path d="M78.1221 52.5605V54.0241C76.8621 54.0241 76.0572 54.7623 76.0572 55.9166V58.8566H74.354V52.704H76.0572V53.8466C76.4531 53.0484 77.2001 52.5605 78.1221 52.5605Z" fill="#C4C4C4"/>
<path d="M78.6469 58.0713L79.382 56.8687C79.9186 57.2614 80.5947 57.5588 81.3996 57.5588C81.8547 57.5588 82.1809 57.3683 82.1809 57.0944C82.1809 56.7136 81.7377 56.5948 81.1195 56.4279C79.8832 56.1188 78.927 55.7732 78.9152 54.5589C78.9033 53.3928 79.8489 52.5593 81.272 52.5593C82.1348 52.5593 82.987 52.8685 83.6513 53.3211L82.9634 54.5589C82.4149 54.2133 81.7849 54.0111 81.272 54.0111C80.8524 54.0111 80.5604 54.1662 80.5604 54.3802C80.5604 54.7129 80.8051 54.8093 81.6218 55.0349C82.6596 55.3088 83.8144 55.6662 83.8144 57.011C83.8144 58.2253 82.8463 58.9988 81.3642 58.9988C80.3961 58.9988 79.3702 58.6661 78.6469 58.0713Z" fill="#C4C4C4"/>
</svg>
