<svg width="25" height="25" viewBox="0 0 25 25" fill="none" xmlns="http://www.w3.org/2000/svg">
<path d="M2.5 15.8333V15.3333H2V15.8333H2.5ZM22.5 15.8333H23V15.3333H22.5V15.8333ZM22.5 24.1666V24.6666H23V24.1666H22.5ZM2.5 24.1666H2V24.6666H2.5V24.1666ZM5.10798 10.0567C7.08774 7.6569 9.7499 6.33331 12.5001 6.33331V5.33331C9.41577 5.33331 6.48243 6.81923 4.3366 9.42037L5.10798 10.0567ZM12.5001 6.33331C15.2502 6.33331 17.9124 7.6569 19.8922 10.0567L20.6635 9.42037C18.5177 6.81923 15.5844 5.33331 12.5001 5.33331V6.33331ZM1.21903 6.98482C4.23018 3.33475 8.29122 1.30878 12.5 1.30878V0.308777C7.95708 0.308777 3.62487 2.49707 0.447638 6.34846L1.21903 6.98482ZM12.5 1.30878C16.7088 1.30878 20.7698 3.33475 23.781 6.98482L24.5524 6.34846C21.3751 2.49707 17.0429 0.308777 12.5 0.308777V1.30878ZM12 9.99997V15H13V9.99997H12ZM2.5 16.3333H22.5V15.3333H2.5V16.3333ZM22 15.8333V24.1666H23V15.8333H22ZM22.5 23.6666H2.5V24.6666H22.5V23.6666ZM3 24.1666V15.8333H2V24.1666H3Z" fill="black"/>
</svg>
