<svg width="25" height="25" viewBox="0 0 25 25" fill="none" xmlns="http://www.w3.org/2000/svg">
<path d="M15.8333 24.1666H22.5C23.4205 24.1666 24.1667 23.4205 24.1667 22.5V2.49998C24.1667 1.57951 23.4205 0.833313 22.5 0.833313H15.8333C14.9129 0.833313 14.1667 1.57951 14.1667 2.49998V22.5C14.1667 23.4205 14.9129 24.1666 15.8333 24.1666ZM15.8333 24.1666H6.66668M10.8333 19.1666V24.1666M14.1667 9.16665H24.1667M16.6667 19.1666H21.6667M2.50001 5.83331H14.1667V19.1666H2.50001C1.57954 19.1666 0.833344 18.4205 0.833344 17.5V7.49998C0.833344 6.5795 1.57954 5.83331 2.50001 5.83331Z" stroke="black"/>
</svg>
