<svg width="25" height="25" viewBox="0 0 25 25" fill="none" xmlns="http://www.w3.org/2000/svg">
<path d="M14.1667 24.1666H13.6667C13.6667 24.2993 13.7194 24.4264 13.8131 24.5202C13.9069 24.614 14.0341 24.6666 14.1667 24.6666V24.1666ZM14.1667 4.16665V3.66665C14.0341 3.66665 13.9069 3.71933 13.8131 3.8131C13.7194 3.90686 13.6667 4.03404 13.6667 4.16665H14.1667ZM24.1667 19.1667H24.6667H24.1667ZM19.1667 24.1666V23.6666V24.1666ZM24.1667 9.16665H23.6667H24.1667ZM19.1667 4.16665V4.66665V4.16665ZM10.8333 0.833317L11.3333 0.833317C11.3333 0.557174 11.1095 0.333317 10.8333 0.333317V0.833317ZM10.8333 20.8333V21.3333C11.1095 21.3333 11.3333 21.1095 11.3333 20.8333H10.8333ZM0.833344 5.83331H1.33334H0.833344ZM5.83335 0.833313L5.83335 1.33331L5.83335 0.833313ZM5.83334 20.8333V21.3333V20.8333ZM0.833344 15.8333H0.333344H0.833344ZM23.6667 9.16665V19.1667H24.6667V9.16665H23.6667ZM19.1667 23.6666H14.1667V24.6666H19.1667V23.6666ZM14.6667 24.1666L14.6667 4.16665H13.6667L13.6667 24.1666H14.6667ZM14.1667 4.66665L19.1667 4.66665L19.1667 3.66665L14.1667 3.66665V4.66665ZM23.6667 19.1667C23.6667 21.6519 21.652 23.6666 19.1667 23.6666V24.6666C22.2042 24.6666 24.6667 22.2042 24.6667 19.1667H23.6667ZM24.6667 9.16665C24.6667 6.12909 22.2042 3.66666 19.1667 3.66665L19.1667 4.66665C21.652 4.66666 23.6667 6.68137 23.6667 9.16665H24.6667ZM10.3333 0.833317L10.3333 20.8333H11.3333L11.3333 0.833317L10.3333 0.833317ZM10.8333 20.3333H5.83334V21.3333H10.8333V20.3333ZM1.33334 15.8333L1.33334 5.83331H0.333344L0.333344 15.8333H1.33334ZM5.83335 1.33331L10.8333 1.33332V0.333317L5.83335 0.333313L5.83335 1.33331ZM1.33334 5.83331C1.33334 3.34803 3.34806 1.33331 5.83335 1.33331L5.83335 0.333313C2.79578 0.333311 0.333344 2.79575 0.333344 5.83331H1.33334ZM5.83334 20.3333C3.34806 20.3333 1.33334 18.3186 1.33334 15.8333H0.333344C0.333343 18.8709 2.79578 21.3333 5.83334 21.3333V20.3333ZM21.3333 17.5C21.3333 16.3034 20.3633 15.3333 19.1667 15.3333V16.3333C19.811 16.3333 20.3333 16.8556 20.3333 17.5H21.3333ZM19.1667 19.6666C20.3633 19.6666 21.3333 18.6966 21.3333 17.5H20.3333C20.3333 18.1443 19.811 18.6666 19.1667 18.6666V19.6666ZM17 17.5C17 18.6966 17.9701 19.6666 19.1667 19.6666V18.6666C18.5223 18.6666 18 18.1443 18 17.5H17ZM18 17.5C18 16.8556 18.5223 16.3333 19.1667 16.3333V15.3333C17.9701 15.3333 17 16.3034 17 17.5H18ZM5.83334 8.66665C5.18901 8.66665 4.66668 8.14431 4.66668 7.49998H3.66668C3.66668 8.6966 4.63673 9.66665 5.83334 9.66665V8.66665ZM7.00001 7.49998C7.00001 8.14431 6.47767 8.66665 5.83334 8.66665V9.66665C7.02996 9.66665 8.00001 8.6966 8.00001 7.49998H7.00001ZM5.83334 6.33332C6.47767 6.33332 7.00001 6.85565 7.00001 7.49998H8.00001C8.00001 6.30337 7.02996 5.33332 5.83334 5.33332V6.33332ZM5.83334 5.33332C4.63673 5.33332 3.66668 6.30337 3.66668 7.49998H4.66668C4.66668 6.85565 5.18901 6.33332 5.83334 6.33332V5.33332Z" fill="black"/>
</svg>
