<svg width="18" height="25" viewBox="0 0 18 25" fill="none" xmlns="http://www.w3.org/2000/svg">
<path d="M2.50001 5.83331H12.5M2.50001 5.83331C1.57954 5.83331 0.833344 6.5795 0.833344 7.49998V17.5C0.833344 18.4205 1.57954 19.1666 2.50001 19.1666M2.50001 5.83331V2.49998C2.50001 1.57951 3.2462 0.833313 4.16668 0.833313H10.8333C11.7538 0.833313 12.5 1.57951 12.5 2.49998V5.83331M12.5 5.83331C13.4205 5.83331 14.1667 6.5795 14.1667 7.49998V17.5C14.1667 18.4205 13.4205 19.1666 12.5 19.1666M12.5 19.1666H2.50001M12.5 19.1666V22.5C12.5 23.4205 11.7538 24.1666 10.8333 24.1666H4.16668C3.2462 24.1666 2.50001 23.4205 2.50001 22.5V19.1666M17.5 9.99998V15" stroke="black"/>
</svg>
